<svg width="24" height="24" viewBox="0 0 24 24" fill="none" xmlns="http://www.w3.org/2000/svg">
<path fill-rule="evenodd" clip-rule="evenodd" d="M1 12C1 5.92487 5.92487 1 12 1C18.0751 1 23 5.92487 23 12C23 13.809 22.5626 15.5183 21.7872 17.0257L22.3638 19.3321C22.8215 21.1631 21.1631 22.8215 19.3321 22.3638L17.0257 21.7872C15.5183 22.5626 13.809 23 12 23C5.92487 23 1 18.0751 1 12ZM12 3C7.02944 3 3 7.02944 3 12C3 16.9706 7.02944 21 12 21C13.6014 21 15.1022 20.5826 16.4029 19.8515C16.6256 19.7264 16.8877 19.6911 17.1355 19.7531L19.8172 20.4235C20.1834 20.5151 20.5151 20.1834 20.4235 19.8172L19.7531 17.1355C19.6911 16.8877 19.7264 16.6256 19.8515 16.4029C20.5826 15.1022 21 13.6014 21 12C21 7.02944 16.9706 3 12 3Z" fill="#0258FF"/>
<path fill-rule="evenodd" clip-rule="evenodd" d="M6.5 10C6.5 9.44772 6.94772 9 7.5 9H16.5C17.0523 9 17.5 9.44772 17.5 10C17.5 10.5523 17.0523 11 16.5 11H7.5C6.94772 11 6.5 10.5523 6.5 10Z" fill="#0258FF"/>
<path fill-rule="evenodd" clip-rule="evenodd" d="M6.5 14C6.5 13.4477 6.94772 13 7.5 13H13.5C14.0523 13 14.5 13.4477 14.5 14C14.5 14.5523 14.0523 15 13.5 15H7.5C6.94772 15 6.5 14.5523 6.5 14Z" fill="#0258FF"/>
</svg>
