<svg width="24" height="24" viewBox="0 0 24 24" fill="none" xmlns="http://www.w3.org/2000/svg">
<path d="M5.54444 3H3.50325C2.11947 3 1 4.12015 1 5.5C1 11.1373 5.23889 15.7824 10.7025 16.4243L6.5 13.75L6.39248 12.5404C4.32491 10.8916 3 8.35089 3 5.5C3 5.22591 3.22284 5 3.50325 5H5.72222L5.54444 3Z" fill="#0258FF"/>
<path d="M17.8436 12.3458C19.7756 10.6954 21 8.24184 21 5.50325C21 5.22425 20.7755 5 20.4967 5H18.3333L18.4667 3H20.4967C21.8784 3 23 4.11806 23 5.50325C23 11.1113 18.8 15.7406 13.3711 16.4154L17.75 13.75L17.8436 12.3458Z" fill="#0258FF"/>
<path fill-rule="evenodd" clip-rule="evenodd" d="M5 3.5C5 2.11929 6.11929 1 7.5 1H16.5C17.8807 1 19 2.11929 19 3.5V11C19 14.866 15.866 18 12 18C8.13401 18 5 14.866 5 11V3.5ZM7.5 3C7.22386 3 7 3.22386 7 3.5V11C7 13.7614 9.23858 16 12 16C14.7614 16 17 13.7614 17 11V3.5C17 3.22386 16.7761 3 16.5 3H7.5Z" fill="#0258FF"/>
<path fill-rule="evenodd" clip-rule="evenodd" d="M12 10.6942L10.5352 11.4334C10.2103 11.5974 9.99734 11.4479 10.0592 11.1014L10.339 9.5357L9.15396 8.42684C8.89108 8.18087 8.97337 7.94026 9.33576 7.88971L10.9734 7.66127L11.7058 6.23672C11.8683 5.92071 12.1321 5.92148 12.2942 6.23672L13.0266 7.66127L14.6643 7.88971C15.0275 7.94038 15.1083 8.18147 14.8461 8.42684L13.661 9.5357L13.9408 11.1014C14.0028 11.4488 13.7889 11.597 13.4648 11.4334L12 10.6942Z" fill="#0258FF"/>
<path d="M9 17V18.3371C7.81758 18.8988 7 20.1032 7 21.5V22C7 22.5523 7.44772 23 8 23H16C16.5523 23 17 22.5523 17 22V21.5C17 20.1032 16.1824 18.8988 15 18.3371V17H13V19.05C13 19.5256 13.335 19.9354 13.8011 20.03C14.3198 20.1353 14.7411 20.5095 14.9146 21H9.08542C9.25885 20.5095 9.68016 20.1353 10.1989 20.03C10.665 19.9354 11 19.5256 11 19.05V17H9Z" fill="#0258FF"/>
</svg>
