<svg width="80" height="80" viewBox="0 0 80 80" fill="none" xmlns="http://www.w3.org/2000/svg">
<path d="M40 80C62.0914 80 80 62.0914 80 40C80 17.9086 62.0914 0 40 0C17.9086 0 0 17.9086 0 40C0 62.0914 17.9086 80 40 80Z" fill="#DDE2E4"/>
<path fill-rule="evenodd" clip-rule="evenodd" d="M53.3343 33.3333C53.3343 40.6971 47.3648 46.6667 40.001 46.6667C32.6372 46.6667 26.6676 40.6971 26.6676 33.3333C26.6676 25.9695 32.6372 20 40.001 20C47.3648 20 53.3343 25.9695 53.3343 33.3333ZM40.001 51.3333C29.7255 51.3333 18.1927 57.4056 17.201 59.5C16.3883 61.2164 16.001 66.5 16.001 66.5C16.001 68.4291 19.2065 70 21.1909 70H21.4119C24.7658 73.5523 31.8296 76 40.001 76C48.1736 76 55.2382 73.5516 58.5915 69.9984C60.5937 69.9423 64.001 68.3937 64.001 66.5C64.001 66.5 63.6137 61.2164 62.801 59.5C61.8093 57.4056 50.2764 51.3333 40.001 51.3333Z" fill="white"/>
</svg>
